<svg width="42" height="42" viewBox="0 0 42 42" fill="none" xmlns="http://www.w3.org/2000/svg">
<path d="M30.8 1.68933C22.1254 -2.25334 12.592 1.25333 6.92002 6.92666C1.24536 12.6 -2.26264 22.132 1.68269 30.804C7.13469 42.7867 23.5814 44.7373 34.1574 34.1613C44.7334 23.588 42.7827 7.14133 30.7987 1.68933H30.8ZM24.524 24.5293C19.284 29.7693 11.4774 29.456 8.13469 24.352C5.26936 19.9773 6.76402 14.108 10.4334 10.44C14.1027 6.77066 19.9707 5.276 24.3467 8.14133C29.4507 11.4827 29.764 19.2907 24.524 24.5293Z" fill="#B53478"/>
<path d="M27.6307 4.85733C21.156 1.31733 13.3227 3.77733 8.54669 8.55199C3.76936 13.328 1.31069 21.1613 4.85069 27.636C9.34936 35.868 21.204 36.7627 28.9814 28.9853C36.7587 21.2093 35.8627 9.35599 27.6307 4.85733ZM24.524 24.5293C19.284 29.7693 11.4774 29.456 8.13469 24.352C5.26936 19.9773 6.76402 14.108 10.4334 10.44C14.1027 6.77066 19.9707 5.27599 24.3467 8.14133C29.4507 11.4827 29.764 19.2907 24.524 24.5293Z" fill="#ED297C"/>
<path d="M38.024 15.4453C35.0547 13.5827 31.2627 14.0587 29.208 16.112C28.4868 16.8235 27.9994 17.7379 27.8107 18.7333C27.268 20.748 26.1547 22.736 24.4427 24.448C19.252 29.6387 11.5187 29.336 8.20002 24.2867C5.35069 19.952 6.82802 14.1253 10.4734 10.48C11.6642 9.29077 13.0706 8.33916 14.6174 7.676C15.2227 7.41733 15.82 7.02266 16.3414 6.49866C17.9227 4.91733 18.0747 2.92533 16.7614 2.10266C15.7894 1.492 14.288 1.70666 13.0067 2.51333C10.7613 3.65999 8.70784 5.14889 6.92002 6.92666C1.24536 12.6 -2.26264 22.132 1.68269 30.804C7.13469 42.7867 23.5814 44.7373 34.1574 34.1613C37.8787 30.4413 40.048 25.992 40.776 21.552C41.3814 19.3453 40.3174 16.8853 38.024 15.4453Z" fill="url(#paint0_radial_1_2)"/>
<path d="M29.72 23.7467C28.0934 22.3067 27.4947 20.436 27.8107 18.7333C27.268 20.748 26.1547 22.736 24.4427 24.448C19.252 29.6387 11.5187 29.336 8.20003 24.2867C5.35069 19.952 6.82803 14.1253 10.4734 10.48C11.6642 9.29077 13.0706 8.33916 14.6174 7.67599C13.3907 8.20133 12.128 8.16666 11.3694 7.49333C11.1064 7.26079 10.9165 6.95696 10.8227 6.61866C10.008 7.20533 9.24403 7.85466 8.54536 8.55199C3.77069 13.328 1.31203 21.1613 4.85203 27.636C9.35069 35.868 21.2054 36.7627 28.9827 28.9853C30.1488 27.8244 31.1598 26.5176 31.9907 25.0973C31.1587 24.7897 30.39 24.3324 29.7227 23.748L29.72 23.7467Z" fill="url(#paint1_radial_1_2)"/>
<path d="M29.72 23.7467C28.0934 22.3067 27.4947 20.436 27.8107 18.7333C27.268 20.748 26.1547 22.736 24.4427 24.448C19.252 29.6387 11.5187 29.336 8.20003 24.2867C5.35069 19.952 6.82803 14.1253 10.4734 10.48C11.6642 9.29077 13.0706 8.33916 14.6174 7.67599C13.3907 8.20133 12.128 8.16666 11.3694 7.49333C11.1064 7.26079 10.9165 6.95696 10.8227 6.61866C10.008 7.20533 9.24403 7.85466 8.54536 8.55199C3.77069 13.328 1.31203 21.1613 4.85203 27.636C9.35069 35.868 21.2054 36.7627 28.9827 28.9853C30.1488 27.8244 31.1598 26.5176 31.9907 25.0973C31.1587 24.7897 30.39 24.3324 29.7227 23.748L29.72 23.7467Z" fill="url(#paint2_radial_1_2)"/>
<path d="M30.8 1.68933C22.1254 -2.25334 12.592 1.25333 6.92002 6.92666C1.24536 12.6 -2.26264 22.132 1.68269 30.804C1.89469 31.2693 2.12402 31.7173 2.36802 32.152C5.26868 30.5831 8.06837 28.8344 10.7507 26.916C9.70241 26.2615 8.80927 25.3866 8.13336 24.352C5.26936 19.976 6.76402 14.108 10.4334 10.44C14.1027 6.77066 19.9707 5.27599 24.3467 8.14133C25.2694 8.74358 26.0664 9.51926 26.6934 10.4253C28.4688 7.72937 30.0685 4.92177 31.4827 2.01999C31.257 1.905 31.029 1.79475 30.7987 1.68933H30.8Z" fill="#FEFEFE" fill-opacity="0.122"/>
<defs>
<radialGradient id="paint0_radial_1_2" cx="0" cy="0" r="1" gradientUnits="userSpaceOnUse" gradientTransform="translate(18.1113 25.3317) scale(119.241 119.243)">
<stop stop-color="#FEC32B"/>
<stop offset="1" stop-color="#F37536"/>
</radialGradient>
<radialGradient id="paint1_radial_1_2" cx="0" cy="0" r="1" gradientUnits="userSpaceOnUse" gradientTransform="translate(16.8875 -23.0312) rotate(-130.605) scale(144.93 138.726)">
<stop stop-color="#FEC32B"/>
<stop offset="0.36863" stop-color="#FEC32B"/>
<stop offset="0.81177" stop-color="#F37536"/>
<stop offset="1" stop-color="#F37536"/>
</radialGradient>
<radialGradient id="paint2_radial_1_2" cx="0" cy="0" r="1" gradientUnits="userSpaceOnUse" gradientTransform="translate(15.7444 -31.6932) rotate(-130.604) scale(133.32 127.612)">
<stop stop-color="#FEC32B"/>
<stop offset="0.36863" stop-color="#FEC32B"/>
<stop offset="0.7098" stop-color="#F37536"/>
<stop offset="1" stop-color="#F37536"/>
</radialGradient>
</defs>
</svg>
