<svg width="15" height="20" viewBox="0 0 15 20" fill="none" xmlns="http://www.w3.org/2000/svg">
<path d="M7.27572 0C3.28177 0 0.0324707 3.2493 0.0324707 7.24321C0.0324707 12.1998 6.51447 19.4763 6.79045 19.7837C7.04967 20.0724 7.50224 20.0719 7.761 19.7837C8.03697 19.4763 14.519 12.1998 14.519 7.24321C14.5189 3.2493 11.2696 0 7.27572 0ZM7.27572 10.8875C5.26627 10.8875 3.6315 9.25267 3.6315 7.24321C3.6315 5.23376 5.2663 3.59899 7.27572 3.59899C9.28514 3.59899 10.9199 5.2338 10.9199 7.24325C10.9199 9.25271 9.28514 10.8875 7.27572 10.8875Z" fill="white"/>
</svg>
