<svg width="22" height="22" viewBox="0 0 22 22" fill="none" xmlns="http://www.w3.org/2000/svg">
<path d="M18.7766 3.22065C14.4802 -1.07446 7.51539 -1.07343 3.22028 3.22301C-1.07483 7.51946 -1.07379 14.4843 3.22265 18.7794C7.51909 23.0745 14.4839 23.0734 18.779 18.777C20.8418 16.7136 22.0003 13.9153 21.9996 10.9976C21.999 8.0805 20.8397 5.28306 18.7766 3.22065ZM16.6588 15.3229C16.6583 15.3234 16.6578 15.3239 16.6573 15.3243V15.3207L16.0999 15.8743C15.3791 16.6042 14.3294 16.9046 13.3316 16.6663C12.3263 16.3973 11.3707 15.969 10.5009 15.3977C9.69288 14.8812 8.94402 14.2775 8.26795 13.5973C7.64589 12.9798 7.08704 12.3018 6.5996 11.5733C6.06645 10.7895 5.64445 9.93563 5.3456 9.036C5.00301 7.97914 5.28691 6.81945 6.07895 6.04034L6.7316 5.38769C6.91306 5.20542 7.20791 5.20477 7.39014 5.38623C7.39061 5.3867 7.39113 5.38718 7.3916 5.38769L9.45225 7.44834C9.63453 7.6298 9.63517 7.92465 9.45371 8.10688C9.45324 8.10736 9.45277 8.10783 9.45225 8.10834L8.24225 9.31834C7.89507 9.66175 7.85141 10.2075 8.1396 10.6017C8.57724 11.2023 9.06154 11.7675 9.58795 12.292C10.1749 12.8815 10.8129 13.4177 11.4946 13.8944C11.8885 14.1691 12.4225 14.1228 12.7633 13.7844L13.9329 12.5964C14.1144 12.4141 14.4092 12.4135 14.5914 12.5949C14.5919 12.5954 14.5924 12.5959 14.5929 12.5964L16.6572 14.6644C16.8396 14.8458 16.8402 15.1406 16.6588 15.3229Z" fill="white"/>
</svg>
