<svg width="119" height="42" viewBox="0 0 119 42" fill="none" xmlns="http://www.w3.org/2000/svg">
<path d="M30.8 1.68933C22.1254 -2.25334 12.592 1.25333 6.92002 6.92666C1.24536 12.6 -2.26264 22.132 1.68269 30.804C7.13469 42.7867 23.5814 44.7373 34.1574 34.1613C44.7334 23.588 42.7827 7.14133 30.7987 1.68933H30.8ZM24.524 24.5293C19.284 29.7693 11.4774 29.456 8.13469 24.352C5.26936 19.9773 6.76402 14.108 10.4334 10.44C14.1027 6.77066 19.9707 5.276 24.3467 8.14133C29.4507 11.4827 29.764 19.2907 24.524 24.5293Z" fill="#B53478"/>
<path d="M27.6307 4.85733C21.156 1.31733 13.3227 3.77733 8.54669 8.55199C3.76936 13.328 1.31069 21.1613 4.85069 27.636C9.34936 35.868 21.204 36.7627 28.9814 28.9853C36.7587 21.2093 35.8627 9.35599 27.6307 4.85733ZM24.524 24.5293C19.284 29.7693 11.4774 29.456 8.13469 24.352C5.26936 19.9773 6.76402 14.108 10.4334 10.44C14.1027 6.77066 19.9707 5.27599 24.3467 8.14133C29.4507 11.4827 29.764 19.2907 24.524 24.5293Z" fill="#ED297C"/>
<path d="M38.024 15.4453C35.0547 13.5827 31.2627 14.0587 29.208 16.112C28.4868 16.8235 27.9994 17.7379 27.8107 18.7333C27.268 20.748 26.1547 22.736 24.4427 24.448C19.252 29.6387 11.5187 29.336 8.20002 24.2867C5.35069 19.952 6.82802 14.1253 10.4734 10.48C11.6642 9.29077 13.0706 8.33916 14.6174 7.676C15.2227 7.41733 15.82 7.02266 16.3414 6.49866C17.9227 4.91733 18.0747 2.92533 16.7614 2.10266C15.7894 1.492 14.288 1.70666 13.0067 2.51333C10.7613 3.65999 8.70784 5.14889 6.92002 6.92666C1.24536 12.6 -2.26264 22.132 1.68269 30.804C7.13469 42.7867 23.5814 44.7373 34.1574 34.1613C37.8787 30.4413 40.048 25.992 40.776 21.552C41.3814 19.3453 40.3174 16.8853 38.024 15.4453Z" fill="url(#paint0_radial_4_3)"/>
<path d="M29.72 23.7467C28.0934 22.3067 27.4947 20.436 27.8107 18.7333C27.268 20.748 26.1547 22.736 24.4427 24.448C19.252 29.6387 11.5187 29.336 8.20003 24.2867C5.35069 19.952 6.82803 14.1253 10.4734 10.48C11.6642 9.29077 13.0706 8.33916 14.6174 7.67599C13.3907 8.20133 12.128 8.16666 11.3694 7.49333C11.1064 7.26079 10.9165 6.95696 10.8227 6.61866C10.008 7.20533 9.24403 7.85466 8.54536 8.55199C3.77069 13.328 1.31203 21.1613 4.85203 27.636C9.35069 35.868 21.2054 36.7627 28.9827 28.9853C30.1488 27.8244 31.1598 26.5176 31.9907 25.0973C31.1587 24.7897 30.39 24.3324 29.7227 23.748L29.72 23.7467Z" fill="url(#paint1_radial_4_3)"/>
<path d="M29.72 23.7467C28.0934 22.3067 27.4947 20.436 27.8107 18.7333C27.268 20.748 26.1547 22.736 24.4427 24.448C19.252 29.6387 11.5187 29.336 8.20003 24.2867C5.35069 19.952 6.82803 14.1253 10.4734 10.48C11.6642 9.29077 13.0706 8.33916 14.6174 7.67599C13.3907 8.20133 12.128 8.16666 11.3694 7.49333C11.1064 7.26079 10.9165 6.95696 10.8227 6.61866C10.008 7.20533 9.24403 7.85466 8.54536 8.55199C3.77069 13.328 1.31203 21.1613 4.85203 27.636C9.35069 35.868 21.2054 36.7627 28.9827 28.9853C30.1488 27.8244 31.1598 26.5176 31.9907 25.0973C31.1587 24.7897 30.39 24.3324 29.7227 23.748L29.72 23.7467Z" fill="url(#paint2_radial_4_3)"/>
<path d="M30.8 1.68933C22.1254 -2.25334 12.592 1.25333 6.92002 6.92666C1.24536 12.6 -2.26264 22.132 1.68269 30.804C1.89469 31.2693 2.12402 31.7173 2.36802 32.152C5.26868 30.5831 8.06837 28.8344 10.7507 26.916C9.70241 26.2615 8.80927 25.3866 8.13336 24.352C5.26936 19.976 6.76402 14.108 10.4334 10.44C14.1027 6.77066 19.9707 5.27599 24.3467 8.14133C25.2694 8.74358 26.0664 9.51926 26.6934 10.4253C28.4688 7.72937 30.0685 4.92177 31.4827 2.01999C31.257 1.905 31.029 1.79475 30.7987 1.68933H30.8Z" fill="#FEFEFE" fill-opacity="0.122"/>
<path d="M47.5827 22.5827H51.4694V14.8093L57.5227 22.5827H60.9627V8.41199H57.0774V15.9027L51.2467 8.41199H47.5827V22.5827ZM63.4734 22.5827H74.972V19.2427H67.36V16.996H74.1614V13.8987H67.3614V11.752H74.8707V8.41333H63.4734V22.584V22.5827ZM80.4374 22.5827H84.364V11.8533H88.616V8.41333H76.1867V11.8533H80.4374V22.5827Z" fill="#ED297C"/>
<path d="M96.5507 22.8667C97.5907 22.86 98.5014 22.72 99.276 22.448C100.013 22.1929 100.699 21.8092 101.301 21.3147C101.877 20.8347 102.388 20.288 102.827 19.668L99.8707 17.5613C99.5907 17.9093 99.2974 18.2107 98.9934 18.4667C98.6867 18.7227 98.3454 18.9253 97.9667 19.0667C97.5934 19.2093 97.1614 19.28 96.6734 19.2827C96.2014 19.2856 95.7346 19.1855 95.3054 18.9893C94.897 18.799 94.5328 18.5257 94.236 18.1867C93.93 17.8347 93.6942 17.4273 93.5414 16.9867C93.3739 16.5081 93.2895 16.0044 93.292 15.4973C93.2947 14.968 93.376 14.476 93.5414 14.0173C93.7027 13.5613 93.936 13.16 94.236 12.816C94.54 12.472 94.8947 12.2013 95.3054 12.0053C95.7174 11.8133 96.172 11.716 96.672 11.712C97.344 11.716 97.9347 11.864 98.436 12.152C98.9387 12.4413 99.3907 12.8387 99.7894 13.352L102.664 11.1253C102.253 10.5428 101.762 10.0205 101.207 9.57333C100.625 9.11144 99.9669 8.75414 99.2627 8.51733C98.524 8.264 97.6747 8.132 96.712 8.12933C95.8892 8.12569 95.0709 8.25076 94.2867 8.49999C93.5307 8.74266 92.8467 9.08666 92.2294 9.53333C91.612 9.97866 91.0827 10.5067 90.636 11.1187C90.1882 11.7357 89.8407 12.4197 89.6067 13.1453C89.3638 13.9056 89.241 14.6992 89.2427 15.4973C89.2467 16.3547 89.3707 17.1573 89.6147 17.9027C89.9598 18.9843 90.5598 19.9672 91.364 20.7687C92.1682 21.5701 93.1532 22.1666 94.236 22.508C94.9843 22.7469 95.7652 22.8679 96.5507 22.8667ZM111.227 22.8667C112.067 22.869 112.902 22.7426 113.704 22.492C114.455 22.2531 115.165 21.9 115.808 21.4453C117.069 20.5566 118.014 19.2883 118.504 17.8253C118.753 17.0744 118.879 16.2884 118.879 15.4973C118.881 14.7012 118.756 13.9098 118.508 13.1533C118.269 12.4263 117.915 11.7424 117.459 11.128C117.005 10.5168 116.457 9.98087 115.836 9.54C115.195 9.08531 114.487 8.73435 113.737 8.49999C112.938 8.25218 112.105 8.1272 111.268 8.12933C110.429 8.12639 109.595 8.2523 108.795 8.50266C108.042 8.74136 107.331 9.09438 106.685 9.54933C106.06 9.99272 105.508 10.5312 105.049 11.1453C104.116 12.404 103.613 13.9302 103.616 15.4973C103.615 16.2938 103.74 17.0853 103.987 17.8427C104.233 18.5813 104.58 19.256 105.036 19.8667C105.488 20.4773 106.031 21.0067 106.659 21.456C107.285 21.904 107.988 22.2493 108.757 22.496C109.557 22.7439 110.39 22.8688 111.227 22.8667ZM111.267 19.324C110.76 19.327 110.258 19.221 109.796 19.0133C109.362 18.8154 108.973 18.5304 108.653 18.176C108.329 17.8213 108.076 17.4082 107.907 16.9587C107.733 16.491 107.644 15.9962 107.644 15.4973C107.643 14.9937 107.73 14.4938 107.9 14.02C108.073 13.5613 108.316 13.1533 108.633 12.8013C108.948 12.4499 109.333 12.1682 109.763 11.9747C110.224 11.7712 110.723 11.668 111.227 11.672C111.769 11.6747 112.267 11.7787 112.712 11.9827C113.157 12.184 113.539 12.464 113.861 12.8187C114.181 13.1733 114.432 13.5787 114.608 14.036C114.78 14.496 114.871 14.9827 114.871 15.4973C114.871 16.024 114.783 16.516 114.615 16.976C114.45 17.4246 114.201 17.8377 113.881 18.1933C113.565 18.5453 113.178 18.8269 112.745 19.02C112.303 19.22 111.811 19.32 111.268 19.324H111.267Z" fill="#F47A35"/>
<path d="M51.4694 15.908V14.8093L52.392 15.9947C55.2454 16.2573 58.1027 16.48 60.9627 16.6653V8.41199H57.0774V15.9027L51.2467 8.41199H47.5827V15.5147C48.876 15.6547 50.172 15.7853 51.4694 15.908ZM63.4734 16.8173C64.7694 16.8893 66.0654 16.9547 67.36 17.012V16.996H74.1614V13.8987H67.3614V11.752H74.8707V8.41333H63.4734V16.8187V16.8173ZM80.4374 17.32C81.748 17.3227 83.0574 17.3187 84.364 17.3067V11.8533H88.616V8.41333H76.1867V11.8533H80.4374V17.32Z" fill="#EF5189"/>
<path d="M93.5747 17.0773L93.5414 16.9853C93.374 16.5072 93.2897 16.0039 93.292 15.4973C93.2947 14.968 93.376 14.476 93.5414 14.0173C93.7027 13.5613 93.936 13.16 94.236 12.816C94.54 12.472 94.8947 12.2013 95.3054 12.0053C95.7174 11.8133 96.172 11.716 96.672 11.712C97.344 11.716 97.9347 11.864 98.436 12.152C98.9387 12.4413 99.3907 12.8387 99.7894 13.352L102.664 11.1253C102.253 10.5428 101.762 10.0205 101.207 9.57333C100.625 9.11144 99.9669 8.75414 99.2627 8.51733C98.524 8.264 97.6747 8.132 96.712 8.12933C95.8892 8.12569 95.0709 8.25076 94.2867 8.49999C93.5307 8.74266 92.8467 9.08666 92.2294 9.53333C91.612 9.97866 91.0827 10.5067 90.636 11.1187C90.1882 11.7357 89.8407 12.4197 89.6067 13.1453C89.3638 13.9056 89.241 14.6992 89.2427 15.4973C89.2454 16.0973 89.3067 16.6693 89.4267 17.2147C90.8134 17.1773 92.1947 17.132 93.5747 17.0773ZM103.681 16.504C105.022 16.4049 106.361 16.2965 107.7 16.1787C107.583 15.4538 107.652 14.711 107.9 14.02C108.073 13.5613 108.316 13.1533 108.633 12.8013C108.948 12.4499 109.333 12.1682 109.763 11.9747C110.224 11.7712 110.723 11.668 111.227 11.672C111.769 11.6747 112.267 11.7787 112.712 11.9827C113.157 12.184 113.539 12.464 113.861 12.8187C114.181 13.1733 114.432 13.5787 114.608 14.036C114.775 14.484 114.865 14.956 114.871 15.456C116.205 15.304 117.536 15.1427 118.86 14.972C118.821 14.3532 118.702 13.7421 118.508 13.1533C118.269 12.4263 117.915 11.7424 117.459 11.128C117.005 10.5168 116.457 9.98087 115.836 9.54C115.195 9.08531 114.487 8.73435 113.737 8.49999C112.938 8.25218 112.105 8.1272 111.268 8.12933C110.429 8.12639 109.595 8.2523 108.795 8.50266C108.042 8.74136 107.331 9.09438 106.685 9.54933C106.06 9.99273 105.508 10.5312 105.049 11.1453C104.116 12.404 103.613 13.9302 103.616 15.4973C103.616 15.8413 103.64 16.1773 103.683 16.504H103.681Z" fill="#F58845"/>
<path d="M47.5827 31.56H49.4494L50.3427 30.2187H50.7134V31.5613H52.356V26.908H49.768C49.0614 26.908 48.5627 27.088 48.2454 27.424C47.9614 27.6907 47.8147 28.0693 47.8147 28.5333C47.8147 29.24 48.1334 29.6867 48.6747 29.944L47.5827 31.5613V31.56ZM50.068 29.084C49.6814 29.084 49.4667 28.912 49.4667 28.62C49.4667 28.3013 49.6894 28.1373 50.068 28.1373H50.7134V29.084H50.068ZM53.2334 32.9373H54.868V30.9933C55.1694 31.3467 55.5814 31.664 56.2867 31.664C57.388 31.664 58.3427 30.744 58.3427 29.2307C58.3427 27.724 57.388 26.804 56.2787 26.804C55.5814 26.804 55.1854 27.14 54.868 27.5267V26.908H53.2334V32.9373ZM55.78 30.2973C55.2547 30.2973 54.8334 29.8573 54.8334 29.2387C54.8334 28.612 55.2547 28.172 55.78 28.172C56.3134 28.172 56.7347 28.612 56.7347 29.2213C56.7347 29.8667 56.3134 30.2973 55.78 30.2973ZM59.048 31.5613H60.6827V30.6413L61.156 30.0733L62.0414 31.5613H63.8387L62.2054 28.8173L63.796 26.908H61.9467L60.6827 28.6373V26.9067H59.048V31.56V31.5613ZM64.2347 31.5613H65.7414L67.288 29.2307V31.5613H68.8707V26.908H67.3654L65.8187 29.2387V26.908H64.2347V31.5613ZM69.748 31.5613H71.2547L72.8014 29.2307V31.5613H74.384V26.908H72.88L71.3334 29.2387V26.908H69.7467V31.5613H69.748ZM72.1054 26.5293C72.8787 26.5293 73.404 26.0653 73.524 25.248L72.672 25.0933C72.5694 25.3947 72.4054 25.592 72.1054 25.592C71.804 25.592 71.64 25.3947 71.5374 25.0933L70.6854 25.248C70.8054 26.0653 71.3307 26.5293 72.1054 26.5293Z" fill="#F47A35"/>
<path d="M77.644 31.56H79.1507L80.6973 29.2307V31.5613H82.28V26.908H80.7747L79.228 29.2387V26.908H77.644V31.5613V31.56ZM83.1573 31.56H84.792V29.8747H86.1333V31.5613H87.768V26.908H86.1333V28.5587H84.792V26.908H83.1573V31.5613V31.56ZM89.6507 31.56H91.2853V28.224H92.6453V26.908H88.2933V28.224H89.652V31.5613L89.6507 31.56ZM95.4747 31.6733C96.404 31.6733 97.048 31.2947 97.496 30.7267L96.5933 29.9787C96.2573 30.3053 95.948 30.452 95.5613 30.452C95.0533 30.452 94.6827 30.1933 94.5547 29.6867H97.668C97.676 29.5747 97.676 29.4533 97.676 29.3507C97.676 27.9827 96.9373 26.804 95.3293 26.804C93.952 26.804 92.98 27.88 92.98 29.2387C92.98 30.7013 94.012 31.6733 95.4747 31.6733ZM94.528 28.852C94.6147 28.3453 94.9067 28.0093 95.3373 28.0093C95.784 28.0093 96.0853 28.336 96.1453 28.852H94.528ZM98.3733 32.9373H100.008V30.9933C100.308 31.3467 100.721 31.664 101.427 31.664C102.528 31.664 103.483 30.744 103.483 29.2307C103.483 27.724 102.528 26.804 101.419 26.804C100.721 26.804 100.325 27.14 100.008 27.5267V26.908H98.3733V32.9373ZM100.92 30.2973C100.395 30.2973 99.9734 29.8573 99.9734 29.2387C99.9734 28.612 100.395 28.172 100.92 28.172C101.453 28.172 101.875 28.612 101.875 29.2213C101.875 29.8667 101.452 30.2973 100.919 30.2973H100.92ZM104.187 31.5613H105.823V29.876H107.164V31.5613H108.799V26.908H107.164V28.5587H105.821V26.908H104.188V31.5613H104.187ZM111.981 31.6733C112.909 31.6733 113.555 31.2947 114.001 30.7267L113.099 29.9787C112.764 30.3053 112.453 30.452 112.067 30.452C111.56 30.452 111.189 30.1933 111.06 29.6867H114.173C114.183 29.5747 114.183 29.4533 114.183 29.3507C114.183 27.9827 113.443 26.804 111.835 26.804C110.459 26.804 109.487 27.88 109.487 29.2387C109.487 30.7013 110.519 31.6733 111.98 31.6733H111.981ZM111.035 28.852C111.12 28.3453 111.413 28.0093 111.843 28.0093C112.291 28.0093 112.591 28.336 112.652 28.852H111.035ZM115.885 31.5613H117.52V28.224H118.88V26.908H114.527V28.224H115.887V31.5613H115.885Z" fill="#ED297C"/>
<defs>
<radialGradient id="paint0_radial_4_3" cx="0" cy="0" r="1" gradientUnits="userSpaceOnUse" gradientTransform="translate(18.1113 25.3317) scale(119.241 119.243)">
<stop stop-color="#FEC32B"/>
<stop offset="1" stop-color="#F37536"/>
</radialGradient>
<radialGradient id="paint1_radial_4_3" cx="0" cy="0" r="1" gradientUnits="userSpaceOnUse" gradientTransform="translate(16.8875 -23.0312) rotate(-130.605) scale(144.93 138.726)">
<stop stop-color="#FEC32B"/>
<stop offset="0.36863" stop-color="#FEC32B"/>
<stop offset="0.81177" stop-color="#F37536"/>
<stop offset="1" stop-color="#F37536"/>
</radialGradient>
<radialGradient id="paint2_radial_4_3" cx="0" cy="0" r="1" gradientUnits="userSpaceOnUse" gradientTransform="translate(15.7444 -31.6932) rotate(-130.604) scale(133.32 127.612)">
<stop stop-color="#FEC32B"/>
<stop offset="0.36863" stop-color="#FEC32B"/>
<stop offset="0.7098" stop-color="#F37536"/>
<stop offset="1" stop-color="#F37536"/>
</radialGradient>
</defs>
</svg>
