<svg width="80" height="30" viewBox="0 0 80 30" fill="none" xmlns="http://www.w3.org/2000/svg">
<rect width="80" height="30" rx="3" fill="white"/>
<path d="M35.9 18.88C35.9 20.24 35.4533 21.3 34.56 22.06C33.7333 22.7667 32.6733 23.12 31.38 23.12C30.1133 23.12 29.0733 22.7933 28.26 22.14C27.3267 21.3933 26.8533 20.32 26.84 18.92H29.44C29.48 20.16 30.1267 20.78 31.38 20.78C32.66 20.78 33.3 20.12 33.3 18.8C33.3 17.4933 32.6333 16.84 31.3 16.84H30.92V14.58H31.3C32.5 14.58 33.1 13.9867 33.1 12.8C33.1 11.5867 32.52 10.98 31.36 10.98C30.2533 10.98 29.6667 11.5533 29.6 12.7H27C27.0267 11.46 27.46 10.4667 28.3 9.72C29.1133 9 30.1333 8.64 31.36 8.64C32.6267 8.64 33.6667 9.02 34.48 9.78C35.2933 10.54 35.7 11.52 35.7 12.72C35.7 13.4533 35.5467 14.0667 35.24 14.56C34.96 15.0133 34.5667 15.3733 34.06 15.64C34.62 15.9333 35.0533 16.3267 35.36 16.82C35.72 17.3933 35.9 18.08 35.9 18.88ZM52.7794 20.38C52.7794 21.2467 52.4927 21.9267 51.9194 22.42C51.386 22.8867 50.706 23.12 49.8794 23.12C49.0527 23.12 48.3727 22.8867 47.8394 22.42C47.266 21.9267 46.9794 21.2467 46.9794 20.38V18.4C46.9794 17.5333 47.266 16.8533 47.8394 16.36C48.3727 15.8933 49.0527 15.66 49.8794 15.66C50.706 15.66 51.386 15.8933 51.9194 16.36C52.4927 16.8533 52.7794 17.5333 52.7794 18.4V20.38ZM43.6994 13.36C43.6994 14.2267 43.4127 14.9067 42.8394 15.4C42.306 15.8667 41.626 16.1 40.7994 16.1C39.9727 16.1 39.2927 15.8667 38.7594 15.4C38.186 14.9067 37.8994 14.2267 37.8994 13.36V11.38C37.8994 10.5133 38.186 9.83333 38.7594 9.34C39.2927 8.87333 39.9727 8.64 40.7994 8.64C41.626 8.64 42.306 8.87333 42.8394 9.34C43.4127 9.83333 43.6994 10.5133 43.6994 11.38V13.36ZM42.9994 23H40.9594L47.6994 8.76H49.7394L42.9994 23ZM50.8994 18.48C50.8994 17.72 50.5594 17.34 49.8794 17.34C49.1994 17.34 48.8594 17.72 48.8594 18.48V20.3C48.8594 21.06 49.1994 21.44 49.8794 21.44C50.5594 21.44 50.8994 21.06 50.8994 20.3V18.48ZM41.8194 11.46C41.8194 10.7 41.4794 10.32 40.7994 10.32C40.1194 10.32 39.7794 10.7 39.7794 11.46V13.28C39.7794 14.04 40.1194 14.42 40.7994 14.42C41.4794 14.42 41.8194 14.04 41.8194 13.28V11.46Z" fill="#FF027E"/>
</svg>
