<svg width="80" height="30" viewBox="0 0 80 30" fill="none" xmlns="http://www.w3.org/2000/svg">
<rect width="80" height="30" rx="3" fill="white"/>
<path d="M35.88 18.2C35.88 19.0667 35.8 19.76 35.64 20.28C35.4533 20.9067 35.1133 21.4667 34.62 21.96C34.2733 22.3067 33.8533 22.58 33.36 22.78C32.8 23.0067 32.1733 23.12 31.48 23.12C30.7867 23.12 30.1467 23.0067 29.56 22.78C29.0533 22.58 28.6333 22.3133 28.3 21.98C27.9 21.58 27.6067 21.1067 27.42 20.56C27.2867 20.1467 27.1933 19.6333 27.14 19.02H29.74C29.8867 20.1933 30.4667 20.78 31.48 20.78C32 20.78 32.4133 20.6267 32.72 20.32C33.0933 19.9467 33.28 19.24 33.28 18.2C33.28 16.4933 32.7 15.64 31.54 15.64C31.06 15.64 30.6667 15.76 30.36 16C30.1067 16.2 29.9267 16.4667 29.82 16.8H27.44V8.76H35.56V11.1H29.8V14.16C30.3067 13.68 31.02 13.44 31.94 13.44C33.0733 13.44 33.96 13.76 34.6 14.4C35.1067 14.9067 35.46 15.5133 35.66 16.22C35.8067 16.74 35.88 17.4 35.88 18.2ZM52.7794 20.38C52.7794 21.2467 52.4927 21.9267 51.9194 22.42C51.386 22.8867 50.706 23.12 49.8794 23.12C49.0527 23.12 48.3727 22.8867 47.8394 22.42C47.266 21.9267 46.9794 21.2467 46.9794 20.38V18.4C46.9794 17.5333 47.266 16.8533 47.8394 16.36C48.3727 15.8933 49.0527 15.66 49.8794 15.66C50.706 15.66 51.386 15.8933 51.9194 16.36C52.4927 16.8533 52.7794 17.5333 52.7794 18.4V20.38ZM43.6994 13.36C43.6994 14.2267 43.4127 14.9067 42.8394 15.4C42.306 15.8667 41.626 16.1 40.7994 16.1C39.9727 16.1 39.2927 15.8667 38.7594 15.4C38.186 14.9067 37.8994 14.2267 37.8994 13.36V11.38C37.8994 10.5133 38.186 9.83333 38.7594 9.34C39.2927 8.87333 39.9727 8.64 40.7994 8.64C41.626 8.64 42.306 8.87333 42.8394 9.34C43.4127 9.83333 43.6994 10.5133 43.6994 11.38V13.36ZM42.9994 23H40.9594L47.6994 8.76H49.7394L42.9994 23ZM50.8994 18.48C50.8994 17.72 50.5594 17.34 49.8794 17.34C49.1994 17.34 48.8594 17.72 48.8594 18.48V20.3C48.8594 21.06 49.1994 21.44 49.8794 21.44C50.5594 21.44 50.8994 21.06 50.8994 20.3V18.48ZM41.8194 11.46C41.8194 10.7 41.4794 10.32 40.7994 10.32C40.1194 10.32 39.7794 10.7 39.7794 11.46V13.28C39.7794 14.04 40.1194 14.42 40.7994 14.42C41.4794 14.42 41.8194 14.04 41.8194 13.28V11.46Z" fill="#FF027E"/>
</svg>
