<svg width="80" height="30" viewBox="0 0 80 30" fill="none" xmlns="http://www.w3.org/2000/svg">
<rect width="80" height="30" rx="3" fill="white"/>
<path d="M22.18 23V20.66L27.5 14.48C27.9933 13.8933 28.24 13.32 28.24 12.76C28.24 11.5733 27.6667 10.98 26.52 10.98C26.0267 10.98 25.6267 11.1133 25.32 11.38C24.96 11.6867 24.78 12.16 24.78 12.8H22.18C22.18 11.5333 22.6 10.5133 23.44 9.74C24.24 9.00667 25.2667 8.64 26.52 8.64C27.8 8.64 28.8333 9.00667 29.62 9.74C30.4333 10.5 30.84 11.5133 30.84 12.78C30.84 13.42 30.7067 13.9933 30.44 14.5C30.2533 14.8733 29.88 15.3867 29.32 16.04L25.34 20.66H30.84V23H22.18ZM41.7394 18.2C41.7394 19.0667 41.6594 19.76 41.4994 20.28C41.3127 20.9067 40.9727 21.4667 40.4794 21.96C40.1327 22.3067 39.7127 22.58 39.2194 22.78C38.6594 23.0067 38.0327 23.12 37.3394 23.12C36.646 23.12 36.006 23.0067 35.4194 22.78C34.9127 22.58 34.4927 22.3133 34.1594 21.98C33.7594 21.58 33.466 21.1067 33.2794 20.56C33.146 20.1467 33.0527 19.6333 32.9994 19.02H35.5994C35.746 20.1933 36.326 20.78 37.3394 20.78C37.8594 20.78 38.2727 20.6267 38.5794 20.32C38.9527 19.9467 39.1394 19.24 39.1394 18.2C39.1394 16.4933 38.5594 15.64 37.3994 15.64C36.9194 15.64 36.526 15.76 36.2194 16C35.966 16.2 35.786 16.4667 35.6794 16.8H33.2994V8.76H41.4194V11.1H35.6594V14.16C36.166 13.68 36.8794 13.44 37.7994 13.44C38.9327 13.44 39.8194 13.76 40.4594 14.4C40.966 14.9067 41.3194 15.5133 41.5194 16.22C41.666 16.74 41.7394 17.4 41.7394 18.2ZM58.6388 20.38C58.6388 21.2467 58.3521 21.9267 57.7788 22.42C57.2454 22.8867 56.5654 23.12 55.7388 23.12C54.9121 23.12 54.2321 22.8867 53.6988 22.42C53.1254 21.9267 52.8388 21.2467 52.8388 20.38V18.4C52.8388 17.5333 53.1254 16.8533 53.6988 16.36C54.2321 15.8933 54.9121 15.66 55.7388 15.66C56.5654 15.66 57.2454 15.8933 57.7788 16.36C58.3521 16.8533 58.6388 17.5333 58.6388 18.4V20.38ZM49.5588 13.36C49.5588 14.2267 49.2721 14.9067 48.6988 15.4C48.1654 15.8667 47.4854 16.1 46.6588 16.1C45.8321 16.1 45.1521 15.8667 44.6188 15.4C44.0454 14.9067 43.7588 14.2267 43.7588 13.36V11.38C43.7588 10.5133 44.0454 9.83333 44.6188 9.34C45.1521 8.87333 45.8321 8.64 46.6588 8.64C47.4854 8.64 48.1654 8.87333 48.6988 9.34C49.2721 9.83333 49.5588 10.5133 49.5588 11.38V13.36ZM48.8588 23H46.8188L53.5588 8.76H55.5988L48.8588 23ZM56.7588 18.48C56.7588 17.72 56.4188 17.34 55.7388 17.34C55.0588 17.34 54.7188 17.72 54.7188 18.48V20.3C54.7188 21.06 55.0588 21.44 55.7388 21.44C56.4188 21.44 56.7588 21.06 56.7588 20.3V18.48ZM47.6788 11.46C47.6788 10.7 47.3388 10.32 46.6588 10.32C45.9788 10.32 45.6388 10.7 45.6388 11.46V13.28C45.6388 14.04 45.9788 14.42 46.6588 14.42C47.3388 14.42 47.6788 14.04 47.6788 13.28V11.46Z" fill="#FF027E"/>
</svg>
