<svg width="26" height="26" viewBox="0 0 26 26" fill="none" xmlns="http://www.w3.org/2000/svg">
<path d="M15.0961 25.8308C14.9878 25.8485 14.8791 25.8647 14.77 25.8796C14.8791 25.8647 14.9878 25.8485 15.0961 25.8308Z" fill="black"/>
<path d="M15.3562 25.7864C15.3044 25.7959 15.2526 25.8046 15.2009 25.8136C15.2526 25.8046 15.3044 25.7959 15.3562 25.7864Z" fill="black"/>
<path d="M14.4796 25.9157C14.3528 25.93 14.2253 25.9427 14.0974 25.9534C14.2253 25.9427 14.3528 25.93 14.4796 25.9157Z" fill="black"/>
<path d="M14.7293 25.8851C14.6684 25.8933 14.6071 25.9008 14.5461 25.9079C14.6071 25.9008 14.6684 25.8933 14.7293 25.8851Z" fill="black"/>
<path d="M15.7101 25.7161C15.6644 25.7258 15.6186 25.7356 15.5728 25.7449C15.6186 25.7356 15.6644 25.7258 15.7101 25.7161Z" fill="black"/>
<path d="M16.5884 25.4979C16.5515 25.5084 16.5146 25.5184 16.4777 25.5287C16.5146 25.5184 16.5515 25.5084 16.5884 25.4979Z" fill="black"/>
<path d="M16.3228 25.5706C16.2827 25.5811 16.2425 25.5918 16.2022 25.6019C16.2425 25.5918 16.2827 25.5813 16.3228 25.5706Z" fill="black"/>
<path d="M15.9753 25.6574C15.9328 25.6673 15.89 25.6767 15.8471 25.6862C15.89 25.6767 15.9328 25.6673 15.9753 25.6574Z" fill="black"/>
<path d="M14.0932 25.9538C14.0247 25.9595 13.9563 25.9647 13.8877 25.9693C13.9563 25.9647 14.0247 25.9595 14.0932 25.9538Z" fill="black"/>
<path d="M26 13C26 5.8214 20.1786 0 13 0C5.8214 0 0 5.8214 0 13C0 20.1786 5.8214 26 13 26C13.0764 26 13.1523 25.9984 13.2285 25.997V15.8771H10.4355V12.6221H13.2285V10.2269C13.2285 7.44897 14.9243 5.93704 17.4023 5.93704C18.5889 5.93704 19.6089 6.02551 19.9062 6.06499V8.96825H18.1975C16.8495 8.96825 16.5884 9.60896 16.5884 10.549V12.6221H19.8118L19.3917 15.8771H16.5884V25.4977C22.0222 23.94 26 18.9339 26 13Z" fill="white"/>
<path d="M13.8589 25.9711C13.7236 25.9798 13.5878 25.9867 13.4515 25.9913C13.5878 25.9867 13.7236 25.9798 13.8589 25.9711Z" fill="black"/>
<path d="M13.4445 25.9917C13.3727 25.9941 13.3007 25.9959 13.2287 25.9971C13.3007 25.9959 13.3727 25.9941 13.4445 25.9917Z" fill="black"/>
</svg>
