<svg width="80" height="30" viewBox="0 0 80 30" fill="none" xmlns="http://www.w3.org/2000/svg">
<rect width="80" height="30" rx="3" fill="white"/>
<path d="M25.96 23V11.56L23.06 14.08V11.28L25.96 8.76H28.56V23H25.96ZM41.6194 18.88C41.6194 20.1867 41.1927 21.2333 40.3394 22.02C39.526 22.7533 38.5127 23.12 37.2994 23.12C36.086 23.12 35.0727 22.7533 34.2594 22.02C33.3927 21.2333 32.9594 20.1867 32.9594 18.88V12.88C32.9594 11.5733 33.3927 10.5267 34.2594 9.74C35.0727 9.00667 36.086 8.64 37.2994 8.64C38.5127 8.64 39.526 9.00667 40.3394 9.74C41.1927 10.5267 41.6194 11.5733 41.6194 12.88V18.88ZM39.0194 12.92C39.0194 11.6267 38.446 10.98 37.2994 10.98C36.1394 10.98 35.5594 11.6267 35.5594 12.92V18.86C35.5594 20.14 36.1394 20.78 37.2994 20.78C38.446 20.78 39.0194 20.14 39.0194 18.86V12.92ZM58.6388 20.38C58.6388 21.2467 58.3521 21.9267 57.7788 22.42C57.2454 22.8867 56.5654 23.12 55.7388 23.12C54.9121 23.12 54.2321 22.8867 53.6988 22.42C53.1254 21.9267 52.8388 21.2467 52.8388 20.38V18.4C52.8388 17.5333 53.1254 16.8533 53.6988 16.36C54.2321 15.8933 54.9121 15.66 55.7388 15.66C56.5654 15.66 57.2454 15.8933 57.7788 16.36C58.3521 16.8533 58.6388 17.5333 58.6388 18.4V20.38ZM49.5588 13.36C49.5588 14.2267 49.2721 14.9067 48.6988 15.4C48.1654 15.8667 47.4854 16.1 46.6588 16.1C45.8321 16.1 45.1521 15.8667 44.6188 15.4C44.0454 14.9067 43.7588 14.2267 43.7588 13.36V11.38C43.7588 10.5133 44.0454 9.83333 44.6188 9.34C45.1521 8.87333 45.8321 8.64 46.6588 8.64C47.4854 8.64 48.1654 8.87333 48.6988 9.34C49.2721 9.83333 49.5588 10.5133 49.5588 11.38V13.36ZM48.8588 23H46.8188L53.5588 8.76H55.5988L48.8588 23ZM56.7588 18.48C56.7588 17.72 56.4188 17.34 55.7388 17.34C55.0588 17.34 54.7188 17.72 54.7188 18.48V20.3C54.7188 21.06 55.0588 21.44 55.7388 21.44C56.4188 21.44 56.7588 21.06 56.7588 20.3V18.48ZM47.6788 11.46C47.6788 10.7 47.3388 10.32 46.6588 10.32C45.9788 10.32 45.6388 10.7 45.6388 11.46V13.28C45.6388 14.04 45.9788 14.42 46.6588 14.42C47.3388 14.42 47.6788 14.04 47.6788 13.28V11.46Z" fill="#FF027E"/>
</svg>
