<svg width="182" height="8" viewBox="0 0 182 8" fill="none" xmlns="http://www.w3.org/2000/svg">
<path d="M181.354 4.35355C181.549 4.15829 181.549 3.84171 181.354 3.64645L178.172 0.464466C177.976 0.269204 177.66 0.269204 177.464 0.464466C177.269 0.659728 177.269 0.976311 177.464 1.17157L180.293 4L177.464 6.82843C177.269 7.02369 177.269 7.34027 177.464 7.53553C177.66 7.7308 177.976 7.7308 178.172 7.53553L181.354 4.35355ZM101 4.5H181V3.5H101V4.5Z" fill="#07003B"/>
<path d="M0.646446 3.64645C0.451187 3.84171 0.451187 4.15829 0.646446 4.35355L3.82843 7.53553C4.02369 7.7308 4.34027 7.7308 4.53554 7.53553C4.7308 7.34027 4.7308 7.02369 4.53554 6.82843L1.70711 4L4.53554 1.17157C4.7308 0.976311 4.7308 0.659728 4.53554 0.464466C4.34027 0.269204 4.02369 0.269204 3.82843 0.464466L0.646446 3.64645ZM81 3.5L1 3.5V4.5L81 4.5V3.5Z" fill="#E0E0E0"/>
</svg>
