<svg width="55" height="55" viewBox="0 0 55 55" fill="none" xmlns="http://www.w3.org/2000/svg">
<rect width="55" height="55" rx="7" fill="white"/>
<path fill-rule="evenodd" clip-rule="evenodd" d="M32.6351 26.7867L32.0302 25.4404L31.4069 26.7867H32.6351ZM34.7616 28.1054V28.2612H33.3042L32.9285 27.4369H31.1044L30.7287 28.2612H29.3812V28.1054C29.537 28.1054 29.6562 28.0413 29.7112 27.9315L31.0586 25.0192C31.1228 24.891 31.1594 24.7444 31.1594 24.6253C31.1594 24.4697 31.1044 24.3873 31.0036 24.3873V24.2316H32.7268L34.395 27.9131C34.45 28.0322 34.5875 28.1054 34.7616 28.1054ZM23.3088 25.9808H24.3079C24.7845 25.9808 25.0319 25.8067 25.0319 25.4862C25.0319 25.1473 24.8121 25.0009 24.3354 25.0009H23.3087V25.9808H23.3088ZM26.5811 28.0963V28.2612H25.1237L24.0879 26.7592H23.3087V28.2612H22.0714V24.6987C22.0714 24.5246 21.9339 24.3873 21.7598 24.3873V24.2316H24.6838C25.6553 24.2316 26.3153 24.7353 26.3153 25.4313C26.3153 25.9808 25.9028 26.4295 25.3254 26.631L26.2145 27.9131C26.3061 28.0505 26.4253 28.0963 26.5811 28.0963H26.5811ZM14.9412 26.9789C14.9412 26.6767 14.7304 26.521 14.1805 26.521H12.8147V27.4918H14.1713C14.6571 27.4918 14.9412 27.3269 14.9412 26.9789ZM12.8147 25.8617H14.2721C14.6937 25.8617 14.877 25.7335 14.877 25.4404C14.877 25.1199 14.6571 25.0009 14.0887 25.0009H12.8147V25.8617ZM16.206 27.0889C16.206 27.8764 15.6286 28.2611 14.4555 28.2611H11.5864V24.6986C11.5864 24.5063 11.4672 24.3872 11.2747 24.3872V24.2316H14.2354C15.4452 24.2316 16.0594 24.5888 16.0594 25.2297C16.0594 25.6419 15.8119 25.9533 15.4545 26.0998C15.9495 26.2555 16.206 26.5851 16.206 27.0889ZM8.8383 28.1054C9.03063 28.1054 9.14067 27.9955 9.14067 27.794V24.6987C9.14067 24.4972 9.03063 24.3872 8.82903 24.3872V24.2316H10.6807V24.3873C10.4789 24.3873 10.369 24.4972 10.369 24.6987V27.794C10.369 27.9955 10.4789 28.1054 10.6714 28.1054V28.2611H8.8383V28.1054ZM21.1962 27.1438V28.2611H17.0532V24.6895C17.0532 24.4972 16.9431 24.3872 16.7415 24.3872V24.2316H21.0495V25.3489H20.8845C20.8845 25.1474 20.7745 25.0376 20.582 25.0376H18.2905V25.7792H20.5271V26.5485H18.2905V27.4552H20.7288C20.9212 27.4552 21.0312 27.3454 21.0312 27.1438H21.1962H21.1962ZM27.0776 28.1054C27.27 28.1054 27.38 27.9955 27.38 27.794V24.6987C27.38 24.4972 27.27 24.3872 27.0684 24.3872V24.2316H28.92V24.3873C28.7182 24.3873 28.6083 24.4972 28.6083 24.6987V27.794C28.6083 27.9955 28.7182 28.1054 28.9108 28.1054V28.2611H27.0776V28.1054ZM39.8117 24.2316V24.3873C39.6192 24.3873 39.5 24.4972 39.5 24.6987V28.2611H38.62L36.3469 25.8159V28.2611H35.247V24.6987C35.247 24.4972 35.137 24.3872 34.9353 24.3872V24.2316H36.466L38.4 26.3105V24.2316H39.8117ZM11.7347 30.4929V30.6577C11.4594 30.6944 11.2668 30.832 11.2117 31.0245L10.019 35.3148H8.59673L7.38565 32.1521L6.24798 35.3148H4.82586L3.37621 30.887C3.33024 30.7404 3.19271 30.6579 3.00006 30.6579V30.4929H4.57813L5.5966 33.5821L6.77093 30.4929H8.06462L9.25749 33.5547L10.1199 30.4929H11.7347H11.7347ZM16.5209 34.1954V35.3127H12.3779V31.7411C12.3779 31.5487 12.2678 31.4389 12.0662 31.4389V31.2832H16.3742V32.4004H16.2092C16.2092 32.199 16.0993 32.0891 15.9067 32.0891H13.6152V32.8308H15.8518V33.6001H13.6152V34.5068H16.0534C16.2459 34.5068 16.3558 34.3969 16.3558 34.1953H16.5209V34.1954ZM17.5842 31.7502C17.5842 31.5487 17.4742 31.4389 17.2725 31.4389V31.2832H18.8216V34.3969H20.8382C21.0398 34.3969 21.1497 34.287 21.1497 34.0856H21.3056V35.3127H17.5842V31.7502ZM22.1856 31.7502C22.1856 31.5487 22.0756 31.4389 21.8739 31.4389V31.2832H23.423V34.3969H25.4395C25.6413 34.3969 25.7511 34.287 25.7511 34.0856H25.907V35.3127H22.1856V31.7502ZM31.4142 31.2832V31.4389C31.2218 31.4389 31.1026 31.5488 31.1026 31.7502V35.3127H30.2227L27.9494 32.8675V35.3127H26.8496V31.7503C26.8496 31.5488 26.7395 31.4389 26.5379 31.4389V31.2832H28.0686L30.0026 33.3621V31.2832H31.4142L31.4142 31.2832ZM36.5128 34.1954V35.3127H32.3698V31.7411C32.3698 31.5487 32.2598 31.4389 32.0582 31.4389V31.2832H36.3662V32.4004H36.2012C36.2012 32.199 36.0912 32.0891 35.8987 32.0891H33.6071V32.8308H35.8438V33.6001H33.6071V34.5068H36.0453C36.2378 34.5068 36.3478 34.3969 36.3478 34.1953H36.5128V34.1954ZM39.6045 32.8396C40.6229 32.9679 41.4671 33.1879 41.4671 34.0588C41.4671 34.9848 40.5312 35.3696 39.4485 35.3696C38.7236 35.3696 37.9713 35.2322 37.2098 34.9572L37.5401 33.8755L37.696 33.9213C37.6684 34.0955 37.7603 34.2055 37.9622 34.2971C38.3842 34.4713 38.797 34.5446 39.3109 34.5446C39.7513 34.5446 40.2743 34.4805 40.2743 34.1504C40.2743 33.8938 39.9714 33.8021 38.7787 33.6829C38.0356 33.6096 37.274 33.3346 37.274 32.5553C37.274 31.712 38.2282 31.2261 39.4026 31.2261C40.0173 31.2261 40.5771 31.3454 41.3294 31.6204L40.8524 32.638L40.7055 32.5646C40.7513 32.4546 40.7238 32.317 40.5587 32.2437C40.2559 32.1154 39.687 32.0513 39.3475 32.0513C38.9622 32.0513 38.4668 32.152 38.4668 32.4546C38.4668 32.6745 38.8155 32.7388 39.2467 32.7937L39.6045 32.8396ZM44.5245 32.8396C45.543 32.9679 46.3871 33.1879 46.3871 34.0588C46.3871 34.9848 45.4511 35.3696 44.3685 35.3696C43.6437 35.3696 42.8914 35.2322 42.1298 34.9572L42.4601 33.8755L42.6161 33.9213C42.5885 34.0955 42.6803 34.2055 42.8822 34.2971C43.3042 34.4713 43.7171 34.5446 44.231 34.5446C44.6713 34.5446 45.1943 34.4805 45.1943 34.1504C45.1943 33.8938 44.8916 33.8021 43.6987 33.6829C42.9556 33.6096 42.1941 33.3346 42.1941 32.5553C42.1941 31.712 43.1483 31.2261 44.3226 31.2261C44.9374 31.2261 45.4971 31.3454 46.2494 31.6204L45.7723 32.638L45.6255 32.5646C45.6713 32.4546 45.6439 32.317 45.4788 32.2437C45.1759 32.1154 44.6071 32.0513 44.2676 32.0513C43.8823 32.0513 43.3868 32.152 43.3868 32.4546C43.3868 32.6745 43.7355 32.7388 44.1667 32.7937L44.5245 32.8396ZM6.06459 25.2472C7.2664 25.348 8.22985 25.7239 8.22985 26.7231C8.22985 27.6307 7.5234 28.3182 5.68838 28.3182C4.87172 28.3182 4.26621 28.2173 3.53222 27.9606C3.34862 27.8966 3.24779 27.9515 3.14685 28.1349L3 28.0797L3.57808 26.668C4.17438 27.1081 4.76162 27.2822 5.66079 27.2822C6.51403 27.2822 6.97286 27.0439 6.97286 26.7414C6.97286 26.4206 6.41321 26.3381 5.1103 26.2463C4.20197 26.1822 3.26611 25.8522 3.26611 24.9079C3.26611 23.9454 4.24783 23.3862 5.49572 23.3862C6.13799 23.3862 6.99118 23.5513 7.60596 23.7712C7.80778 23.8354 7.9271 23.7803 8.01887 23.6337L8.15645 23.6979L7.5968 24.8621C7.08307 24.6147 6.22965 24.4221 5.55996 24.4221C5.05527 24.4221 4.51395 24.5137 4.51395 24.7979C4.51395 25.073 4.83508 25.1463 6.06459 25.2472V25.2472Z" fill="#131413"/>
<path fill-rule="evenodd" clip-rule="evenodd" d="M48.1102 23.231L47.528 24.2384H44.501L43.9189 23.231H48.1102ZM45.8981 21.8207L46.4802 22.8281H43.9189L44.501 21.8207H45.8981ZM50.7879 21.4177H49.6237L50.9044 19.2015L51.4864 20.2089L50.7879 21.4177ZM48.4595 23.4325L49.0416 24.4399L47.5281 27.059H46.3639L48.4595 23.4325ZM46.131 24.6414H47.2952L46.0145 26.8577L45.4324 25.8502L46.131 24.6414H46.131ZM48.1102 22.8281H46.9459L45.4324 20.2089L46.0146 19.2015L48.1102 22.8281ZM48.6923 25.8502L49.2744 24.8428L50.555 27.0591H49.3908L48.6923 25.8502ZM48.8087 23.231H49.9729L51.4864 25.8502L50.9044 26.8576L48.8087 23.231ZM48.8087 22.8281L49.3909 21.8207H52.4179L53 22.8281H48.8087ZM50.4387 23.231H53L52.4179 24.2384H51.0209L50.4387 23.231ZM50.5551 19L48.4595 22.6265L46.3638 19H47.5281L48.4595 20.6118L49.3909 19H50.5551Z" fill="#009EE3"/>
</svg>
