<svg width="80" height="30" viewBox="0 0 80 30" fill="none" xmlns="http://www.w3.org/2000/svg">
<rect width="80" height="30" rx="3" fill="white"/>
<path d="M35.9 13.04C35.9 13.6267 35.7867 14.26 35.56 14.94C35.4533 15.22 35.3267 15.5333 35.18 15.88L31.7 23H28.88L31.84 17.12C31.5467 17.24 31.1933 17.3 30.78 17.3C29.7667 17.3 28.9 16.9267 28.18 16.18C27.4067 15.38 27.02 14.3467 27.02 13.08C27.02 11.7067 27.4467 10.6133 28.3 9.8C29.1133 9.02667 30.1667 8.64 31.46 8.64C32.7533 8.64 33.8067 9.02 34.62 9.78C35.4733 10.58 35.9 11.6667 35.9 13.04ZM33.3 13.06C33.3 11.6733 32.6867 10.98 31.46 10.98C30.2333 10.98 29.62 11.6733 29.62 13.06C29.62 14.4467 30.2333 15.14 31.46 15.14C32.6867 15.14 33.3 14.4467 33.3 13.06ZM52.7794 20.38C52.7794 21.2467 52.4927 21.9267 51.9194 22.42C51.386 22.8867 50.706 23.12 49.8794 23.12C49.0527 23.12 48.3727 22.8867 47.8394 22.42C47.266 21.9267 46.9794 21.2467 46.9794 20.38V18.4C46.9794 17.5333 47.266 16.8533 47.8394 16.36C48.3727 15.8933 49.0527 15.66 49.8794 15.66C50.706 15.66 51.386 15.8933 51.9194 16.36C52.4927 16.8533 52.7794 17.5333 52.7794 18.4V20.38ZM43.6994 13.36C43.6994 14.2267 43.4127 14.9067 42.8394 15.4C42.306 15.8667 41.626 16.1 40.7994 16.1C39.9727 16.1 39.2927 15.8667 38.7594 15.4C38.186 14.9067 37.8994 14.2267 37.8994 13.36V11.38C37.8994 10.5133 38.186 9.83333 38.7594 9.34C39.2927 8.87333 39.9727 8.64 40.7994 8.64C41.626 8.64 42.306 8.87333 42.8394 9.34C43.4127 9.83333 43.6994 10.5133 43.6994 11.38V13.36ZM42.9994 23H40.9594L47.6994 8.76H49.7394L42.9994 23ZM50.8994 18.48C50.8994 17.72 50.5594 17.34 49.8794 17.34C49.1994 17.34 48.8594 17.72 48.8594 18.48V20.3C48.8594 21.06 49.1994 21.44 49.8794 21.44C50.5594 21.44 50.8994 21.06 50.8994 20.3V18.48ZM41.8194 11.46C41.8194 10.7 41.4794 10.32 40.7994 10.32C40.1194 10.32 39.7794 10.7 39.7794 11.46V13.28C39.7794 14.04 40.1194 14.42 40.7994 14.42C41.4794 14.42 41.8194 14.04 41.8194 13.28V11.46Z" fill="#FF027E"/>
</svg>
